<?xml version="1.0" encoding="UTF-8"?>
<svg version="1.1" xmlns="http://www.w3.org/2000/svg" width="1024" height="1024">
<path d="M0 0 C337.92 0 675.84 0 1024 0 C1024 337.92 1024 675.84 1024 1024 C686.08 1024 348.16 1024 0 1024 C0 686.08 0 348.16 0 0 Z " fill="#FEFEFE" transform="translate(0,0)"/>
<path d="M0 0 C5.33817929 0.3695155 8.88802644 1.74737734 13.4375 4.5 C14.66223182 5.22875367 15.88751468 5.95658188 17.11328125 6.68359375 C17.7470166 7.06370605 18.38075195 7.44381836 19.03369141 7.83544922 C22.36236043 9.80686109 25.74614285 11.6788912 29.125 13.5625 C38.43468306 18.78408088 47.66369946 24.12901913 56.74609375 29.73828125 C59.1026883 31.05748409 61.48701581 32.01878409 64 33 C64.29743499 91.592313 64.52659052 150.18459096 64.66384928 208.77750397 C64.68006469 215.69200267 64.69691989 222.60649975 64.71411133 229.52099609 C64.7158112 230.2090725 64.71751106 230.89714891 64.71926244 231.60607612 C64.77466267 253.90972118 64.87231095 276.21293815 64.99186387 298.51632385 C65.11797109 322.08525873 65.19594744 345.65381303 65.22315043 369.22309971 C65.24100486 383.34382435 65.29743036 397.46332009 65.40291407 411.5836665 C65.47153486 421.26133566 65.49242376 430.93836784 65.47551791 440.61626273 C65.4671752 446.20378236 65.48012344 451.78915222 65.54967117 457.37629128 C65.61287654 462.49118931 65.61618301 467.60249037 65.57168563 472.71755302 C65.56618592 474.56836112 65.58274376 476.41939236 65.62348137 478.26976025 C65.73777795 483.78144673 65.67748648 488.71613009 64 494 C60.05878463 497.92283147 56.11866937 499.8083364 51 502 C49.18352117 503.05993061 47.38019492 504.14334387 45.6015625 505.265625 C43.94316568 506.26117892 42.28432011 507.25598573 40.625 508.25 C39.37009766 509.00410156 39.37009766 509.00410156 38.08984375 509.7734375 C35.73018593 511.18849133 33.36632294 512.59612645 31 514 C29.96697754 514.6177832 29.96697754 514.6177832 28.91308594 515.24804688 C24.23379833 518 24.23379833 518 22 518 C22 518.66 22 519.32 22 520 C13.20655412 525.02234359 13.20655412 525.02234359 8.625 524.9375 C6.29332461 524.10475879 4.144228 523.23705461 2 522 C2 521.34 2 520.68 2 520 C1.11828125 519.73832031 0.2365625 519.47664062 -0.671875 519.20703125 C-3.93869803 518.02223276 -6.3804204 516.62489581 -9.25 514.6875 C-13.57128584 511.85934138 -17.91509475 509.44099596 -22.5625 507.19921875 C-26.45770842 505.28282615 -30.22566976 503.14243383 -34 501 C-34 500.34 -34 499.68 -34 499 C-35.02673828 498.86851562 -35.02673828 498.86851562 -36.07421875 498.734375 C-39.69563711 497.82539416 -42.6340638 496.14052127 -45.8125 494.25 C-46.43342529 493.88801514 -47.05435059 493.52603027 -47.6940918 493.15307617 C-51.52005852 490.91188856 -55.29589845 488.59922392 -59.03393555 486.21411133 C-60.95777389 485.02607605 -62.90865955 483.93225392 -64.89453125 482.8515625 C-71.73569046 479.07167392 -78.42127247 475.02411745 -85.12890625 471.01391602 C-91.81753767 467.01775801 -98.53745613 463.11200698 -105.39648438 459.41381836 C-109.66028828 457.09839371 -113.862133 454.67807444 -118.0625 452.25 C-118.90232422 451.76917969 -119.74214844 451.28835938 -120.60742188 450.79296875 C-121.40857422 450.33019531 -122.20972656 449.86742187 -123.03515625 449.390625 C-124.10842163 448.7723584 -124.10842163 448.7723584 -125.20336914 448.14160156 C-127 447 -127 447 -129 445 C-129.24609566 442.45815086 -129.24609566 442.45815086 -129.24050903 439.17880249 C-129.24325836 437.93917252 -129.24600769 436.69954254 -129.24884033 435.42234802 C-129.24176158 434.04116726 -129.23449196 432.65998746 -129.22705078 431.27880859 C-129.22648688 429.83025622 -129.22680281 428.38170328 -129.22793579 426.93315125 C-129.22851114 422.99326293 -129.21672748 419.05349565 -129.20278788 415.11363554 C-129.19031078 410.99899116 -129.18911241 406.88434421 -129.18673706 402.76968384 C-129.18051338 394.97466919 -129.1640906 387.17971044 -129.14403808 379.38472044 C-129.12170664 370.51181567 -129.1106926 361.63890826 -129.10064721 352.76598239 C-129.07972511 334.51061677 -129.04303784 316.2553278 -129 298 C-142.86 298 -156.72 298 -171 298 C-171 279.52 -171 261.04 -171 242 C-157.47 242 -143.94 242 -130 242 C-130.05236816 236.97249512 -130.10473633 231.94499023 -130.15869141 226.76513672 C-130.3242263 210.17316644 -130.4352909 193.5811641 -130.51812172 176.98858452 C-130.56968854 166.9262064 -130.6399908 156.86461044 -130.75439453 146.80273438 C-130.854061 138.03282915 -130.91858017 129.2634903 -130.94088495 120.49303448 C-130.95392425 115.84867625 -130.98456515 111.2059383 -131.05730057 106.56209946 C-131.12522405 102.19002595 -131.14610953 97.82023817 -131.13107681 93.44768715 C-131.13382624 91.84397386 -131.15369978 90.24018358 -131.19205475 88.63692665 C-131.46651927 76.57152036 -131.46651927 76.57152036 -127.83805466 72.68326187 C-123.69336882 70.05841052 -120.94299831 69 -116 69 C-116 68.34 -116 67.68 -116 67 C-115.23816406 66.63648438 -114.47632813 66.27296875 -113.69140625 65.8984375 C-107.7452381 63.00329945 -102.19518359 59.99091545 -96.83984375 56.1015625 C-95 55 -95 55 -92 55 C-92 54.34 -92 53.68 -92 53 C-91.36835938 52.6596875 -90.73671875 52.319375 -90.0859375 51.96875 C-79.94775806 46.47601878 -69.91318491 40.84495774 -60.125 34.75 C-55.51039707 31.88131132 -50.89065903 29.35799632 -46 27 C-44.32596811 26.01237911 -42.66058323 25.01006986 -41 24 C-30.21969587 17.58138214 -19.35096658 11.33547797 -8.40478516 5.20361328 C-7.45651855 4.67106934 -6.50825195 4.13852539 -5.53125 3.58984375 C-4.68111328 3.11409912 -3.83097656 2.63835449 -2.95507812 2.14819336 C-1.06396067 1.14784195 -1.06396067 1.14784195 0 0 Z " fill="#232323" transform="translate(322,242)"/>
<path d="M0 0 C2.7109375 1.5234375 2.7109375 1.5234375 5.375 3.375 C9.8361189 6.34704501 13.90744654 8.36653946 19 10 C19 10.66 19 11.32 19 12 C19.64839844 12.23332031 20.29679688 12.46664062 20.96484375 12.70703125 C24.99528169 14.42398744 28.74675422 16.5420173 32.5625 18.6875 C33.35809326 19.13158203 34.15368652 19.57566406 34.97338867 20.03320312 C40.53839341 23.14929102 46.0509576 26.34227758 51.51953125 29.625 C53.99017937 31.06937935 53.99017937 31.06937935 56.76171875 32.0625 C59 33 59 33 60 35 C61.42476732 35.87001749 62.89294914 36.66911363 64.375 37.4375 C69.98849296 40.42198241 75.50029554 43.56083766 81 46.75 C81.83708496 47.2339624 82.67416992 47.7179248 83.53662109 48.21655273 C86.74842253 50.07981562 89.90913457 51.93942304 93 54 C93.36914349 56.90104866 93.36914349 56.90104866 93.36076355 60.69436646 C93.36332682 61.39027921 93.3658901 62.08619196 93.36853105 62.80319297 C93.37349182 65.1465339 93.35693904 67.48923748 93.34057617 69.83251953 C93.33973039 71.50766993 93.34020408 73.18282144 93.34190369 74.85797119 C93.34276698 79.41565535 93.3250873 83.97310426 93.30418181 88.53073359 C93.28547057 93.28999811 93.28366897 98.0492676 93.28010559 102.80856323 C93.27076876 111.82545411 93.24613287 120.8422363 93.21605712 129.85907924 C93.182564 140.12251843 93.16603992 150.38596271 93.15097082 160.64944291 C93.11958468 181.76636947 93.06455222 202.88314698 93 224 C74.85 224 56.7 224 38 224 C38.05873291 219.87193848 38.11746582 215.74387695 38.17797852 211.49072266 C38.35974767 197.84034836 38.44855167 184.19069041 38.48965549 170.53922462 C38.5168377 162.26310262 38.57559704 153.9894924 38.7097168 145.71435547 C38.8265913 138.49823245 38.88317834 131.28453068 38.86853737 124.06743276 C38.86286373 120.2475505 38.88657175 116.43312939 38.98260689 112.61433792 C40.06247772 97.44173952 40.06247772 97.44173952 35.34388351 83.77196503 C31.38664645 80.29207603 27.04656631 78.36603858 22.07845879 76.73838425 C18.97571773 75.63611793 16.40795887 74.00137379 13.625 72.25 C11.75059675 71.16563448 9.87560659 70.08228279 8 69 C6.99710938 68.40703125 5.99421875 67.8140625 4.9609375 67.203125 C3.98382812 66.64109375 3.00671875 66.0790625 2 65.5 C1.13375 64.9946875 0.2675 64.489375 -0.625 63.96875 C-3.4554346 62.81423062 -4.1606245 63.04636568 -7 64 C-8.65578254 64.82815181 -10.28550282 65.70931515 -11.89453125 66.625 C-12.85166016 67.16769531 -13.80878906 67.71039063 -14.79492188 68.26953125 C-15.79072266 68.84058594 -16.78652344 69.41164063 -17.8125 70 C-18.76576172 70.54011719 -19.71902344 71.08023438 -20.70117188 71.63671875 C-22.65573846 72.74953768 -24.59576014 73.88831979 -26.519844 75.05305058 C-29.01832524 76.45080878 -31.20935626 77.51433352 -33.83715111 78.5393905 C-38.76213815 80.64219489 -43.74690489 82.9158338 -45.8640397 88.12660797 C-47.31335709 94.81011684 -46.97079575 101.65863418 -46.84178162 108.45594788 C-46.85245591 110.78601606 -46.86971705 113.11606181 -46.89299351 115.44603819 C-46.93317023 121.17549425 -46.90374747 126.90164181 -46.84499083 132.63086793 C-46.77857557 139.49444449 -46.79962126 146.35704775 -46.82379113 153.22080384 C-46.8659588 165.88655954 -46.83847046 178.55126618 -46.77114677 191.21687508 C-46.70472623 203.75549204 -46.6693492 216.29356529 -46.67534065 228.83236504 C-46.6756959 229.61225962 -46.67605116 230.3921542 -46.67641717 231.19568195 C-46.67838262 235.15644694 -46.68090182 239.11721139 -46.68363417 243.07797592 C-46.70198681 271.12504514 -46.6508741 299.17159985 -46.55883789 327.21850586 C-46.46959074 354.46397662 -46.41185341 381.7092168 -46.39672852 408.95483398 C-46.39624968 409.79480373 -46.39577084 410.63477347 -46.3952775 411.50019684 C-46.39050355 419.93559417 -46.3863697 428.3709917 -46.38270481 436.80638958 C-46.37522456 453.98994259 -46.36347228 471.1734918 -46.34913635 488.35704041 C-46.34848249 489.14709506 -46.34782863 489.93714971 -46.34715496 490.75114542 C-46.30300885 543.50090475 -46.15896862 596.2504769 -46 649 C-44.02 649.66 -42.04 650.32 -40 651 C-40 651.66 -40 652.32 -40 653 C-39.44828125 653.11214844 -38.8965625 653.22429688 -38.328125 653.33984375 C-35.59934789 654.11360773 -33.27227057 655.26817694 -30.75 656.5625 C-29.85796875 657.01753906 -28.9659375 657.47257813 -28.046875 657.94140625 C-27.03367187 658.46541016 -27.03367187 658.46541016 -26 659 C-26 659.66 -26 660.32 -26 661 C-25.41444336 661.12165527 -24.82888672 661.24331055 -24.22558594 661.36865234 C-21.95898154 662.011636 -20.37477372 662.847713 -18.390625 664.1015625 C-17.38128906 664.71257812 -17.38128906 664.71257812 -16.3515625 665.3359375 C-14.9583349 666.19051948 -13.57271482 667.05763844 -12.1953125 667.9375 C-6.96931254 671.0572034 -3.94905219 671.32052952 2 670 C2 669.34 2 668.68 2 668 C3.05058594 667.49210938 4.10117187 666.98421875 5.18359375 666.4609375 C12.04573002 663.10878679 18.70322776 659.7846334 24.96875 655.38671875 C34.32394366 649 34.32394366 649 38 649 C38 568.48 38 487.96 38 405 C24.14 405 10.28 405 -4 405 C-4 386.52 -4 368.04 -4 349 C28.01 349 60.02 349 93 349 C93 458.56 93 568.12 93 681 C92.01 681 91.02 681 90 681 C90 681.66 90 682.32 90 683 C89.47269287 683.28609131 88.94538574 683.57218262 88.40209961 683.86694336 C78.85818488 689.05473162 69.36921508 694.28927412 60.08911133 699.9375 C55.78956459 702.54833739 51.41996613 704.97486631 46.98828125 707.3515625 C42.47445581 709.84154203 38.05318445 712.48469623 33.61865234 715.11254883 C28.04838414 718.40507858 22.42606014 721.59223272 16.76367188 724.72338867 C13.54014941 726.51910967 10.38126201 728.3663592 7.28515625 730.375 C6.69831055 730.75317871 6.11146484 731.13135742 5.50683594 731.52099609 C3.91909449 732.55554463 2.34381627 733.60915007 0.76953125 734.6640625 C-2 736 -2 736 -4.625 735.8359375 C-6.86513481 735.047469 -8.76681329 734.19991399 -10.8125 733 C-11.58078125 732.5565625 -12.3490625 732.113125 -13.140625 731.65625 C-14.08421875 731.1096875 -15.0278125 730.563125 -16 730 C-17.28528432 729.27915271 -18.57184172 728.5605726 -19.859375 727.84375 C-26.02886564 724.40635891 -32.16851351 720.97328092 -38.11328125 717.15625 C-40.36193574 715.77819259 -42.67142577 714.55073741 -45 713.3125 C-49.79891955 710.73308074 -54.39970657 707.91224116 -59 705 C-65.21179925 701.07588145 -71.49273754 697.41786637 -78 694 C-79.95406765 692.96366569 -81.90686935 691.92498658 -83.85913086 690.88525391 C-85.16751498 690.18899136 -86.47686848 689.49454624 -87.78735352 688.80224609 C-92.33353057 686.39177143 -96.71896373 683.85402418 -101 681 C-101.37590417 679.10263881 -101.37590417 679.10263881 -101.37719816 676.73471266 C-101.38496494 675.83223416 -101.39273172 674.92975567 -101.40073386 673.99992934 C-101.39399621 673.00011632 -101.38725856 672.0003033 -101.38031673 670.97019291 C-101.38730661 669.38016411 -101.38730661 669.38016411 -101.3944377 667.75801352 C-101.40650078 664.16399813 -101.39694883 660.57035294 -101.38768005 656.97633362 C-101.39184802 654.39049339 -101.39732256 651.804655 -101.40399987 649.21882004 C-101.41641105 643.57504885 -101.41756014 637.93136074 -101.41144943 632.28758049 C-101.40238693 623.89527084 -101.41036731 615.50303849 -101.42174067 607.11073479 C-101.4414469 592.12485131 -101.44374744 577.13900234 -101.43854547 562.153109 C-101.43399506 549.03838222 -101.434579 535.92366913 -101.44038582 522.80894279 C-101.44114267 521.05236264 -101.44189865 519.29578249 -101.44265376 517.53920234 C-101.44379891 514.89246189 -101.44494878 512.24572144 -101.44611301 509.59898099 C-101.4568243 484.97906235 -101.4615368 460.35914829 -101.45364285 435.73922825 C-101.45334567 434.81038255 -101.4530485 433.88153686 -101.45274232 432.92454432 C-101.45029318 425.38080194 -101.4476817 417.83705962 -101.44505819 410.2933173 C-101.43495426 380.86210849 -101.44331137 351.43095672 -101.46655273 321.99975586 C-101.4926002 288.96135858 -101.50548 255.92299564 -101.49836498 222.88458771 C-101.49764888 219.3646828 -101.4969745 215.84477789 -101.49632454 212.32487297 C-101.49615473 211.45813289 -101.49598492 210.59139281 -101.49580997 209.69838787 C-101.49350286 196.59021337 -101.50150356 183.48207065 -101.51461601 170.37390327 C-101.52949429 155.47358293 -101.53041484 140.57333733 -101.5125451 125.67301864 C-101.50294826 117.32633125 -101.50448551 108.97981792 -101.52177979 100.63314197 C-101.53343551 94.41456743 -101.5243697 88.19619021 -101.50695742 81.97763275 C-101.5031605 79.45141173 -101.50622394 76.92516991 -101.51656907 74.39896721 C-101.52956651 70.98419825 -101.51831016 67.57037474 -101.50057125 64.15564823 C-101.51022176 63.15817638 -101.51987227 62.16070452 -101.52981523 61.13300624 C-101.52005738 60.22802423 -101.51029953 59.32304222 -101.50024599 58.3906365 C-101.50019869 57.60915311 -101.5001514 56.82766972 -101.50010267 56.02250502 C-101 54 -101 54 -99.15623463 52.22558522 C-97 51 -97 51 -94 51 C-94 50.34 -94 49.68 -94 49 C-93.20335937 48.61328125 -92.40671875 48.2265625 -91.5859375 47.828125 C-84.79275849 44.55622506 -84.79275849 44.55622506 -78.375 40.625 C-76 39 -76 39 -74 39 C-74 38.34 -74 37.68 -74 37 C-72.46085937 36.37544922 -72.46085937 36.37544922 -70.890625 35.73828125 C-67.2907058 34.1942958 -64.05759399 32.2942213 -60.75 30.1875 C-54.95510511 26.54542444 -49.03800943 23.21969 -43 20 C-41.04039663 18.93984421 -39.08204854 17.87736465 -37.125 16.8125 C-36.26132812 16.34457031 -35.39765625 15.87664062 -34.5078125 15.39453125 C-32.82374759 14.45806525 -31.15554694 13.49253525 -29.50390625 12.5 C-26.97581525 10.98551179 -24.40954005 9.58000449 -21.8125 8.1875 C-17.16375619 5.69396895 -12.75338867 2.96197297 -8.38671875 0.00390625 C-5.14002703 -1.36172349 -3.36209905 -0.96244941 0 0 Z " fill="#232323" transform="translate(516,135)"/>
<path d="M0 0 C7.37238967 3.68619484 14.54643211 7.33657465 21.625 11.5 C22.4396875 11.9748584 23.254375 12.4497168 24.09375 12.93896484 C29.1582403 15.89695888 34.19781664 18.893651 39.1875 21.9765625 C41.12982569 23.14943747 41.12982569 23.14943747 44 24 C44 24.66 44 25.32 44 26 C44.69222656 26.26167969 45.38445313 26.52335937 46.09765625 26.79296875 C57.17128957 31.39828866 67.48971468 38.0056698 77.77050781 44.12329102 C83.54427158 47.55692323 89.33675998 50.94904122 95.1875 54.25 C95.84032959 54.6205249 96.49315918 54.9910498 97.16577148 55.37280273 C99.75913182 56.82735934 102.17061989 58.0568733 105 59 C105 59.66 105 60.32 105 61 C106.0828125 61.433125 106.0828125 61.433125 107.1875 61.875 C109.79166667 62.91666667 112.39583333 63.95833333 115 65 C115 65.66 115 66.32 115 67 C116.32451172 67.39445312 116.32451172 67.39445312 117.67578125 67.796875 C120.91397935 68.96886679 123.33958951 70.33703138 126.1875 72.25 C130.70779396 75.20463958 135.29641306 77.85765856 140.0546875 80.40625 C148.95229095 85.22086831 157.67106338 90.37674854 166.40234375 95.484375 C168.42920844 96.66696673 170.46018475 97.84000868 172.5 99 C192.22 110.22 192.22 110.22 194 112 C194.09765691 114.39068137 194.12996979 116.75243267 194.12025452 119.14356995 C194.12153615 120.27803736 194.12153615 120.27803736 194.12284368 121.43542331 C194.12450076 123.98895482 194.11897342 126.54242173 194.11352539 129.09594727 C194.11324354 130.91873167 194.11340121 132.7415162 194.1139679 134.56430054 C194.11425596 139.52896888 194.10835779 144.49361328 194.10139394 149.45827603 C194.09516188 154.64063475 194.09455672 159.82299395 194.09336853 165.00535583 C194.09025478 174.82617558 194.08204079 184.64698426 194.07201904 194.46779913 C194.06085927 205.64535906 194.0553478 216.82291952 194.05032361 228.00048363 C194.03985822 251.00032857 194.02225792 274.00016367 194 297 C191.8112725 298.25143268 189.62245725 299.50271147 187.43359375 300.75390625 C186.82398804 301.10247681 186.21438232 301.45104736 185.58630371 301.81018066 C181.41609625 304.19374718 177.24076733 306.56808984 173.0625 308.9375 C167.51525631 312.09337938 162.03297395 315.34994308 156.58813477 318.67944336 C153.06566565 320.81785384 149.49447109 322.82921966 145.8671875 324.78515625 C140.00104438 327.96342426 134.27136442 331.35114138 128.54638672 334.77578735 C119.98304944 339.89591426 111.40183217 344.97320523 102.68212891 349.82373047 C97.3194043 352.8081407 91.99943882 355.86366472 86.6875 358.9375 C85.86765625 359.41098877 85.0478125 359.88447754 84.203125 360.37231445 C83.43871094 360.81534912 82.67429687 361.25838379 81.88671875 361.71484375 C81.20826904 362.10792725 80.52981934 362.50101074 79.83081055 362.90600586 C78.18931465 363.88687572 76.59106956 364.93928696 75 366 C74.01 366 73.02 366 72 366 C72 366.66 72 367.32 72 368 C70.92878906 368.56589844 69.85757813 369.13179687 68.75390625 369.71484375 C67.3567202 370.45563367 65.95958753 371.19652429 64.5625 371.9375 C63.85544922 372.31068359 63.14839844 372.68386719 62.41992188 373.06835938 C58.99521342 374.72492335 58.99521342 374.72492335 56 377 C55.91433484 379.36275604 55.89403432 381.69583599 55.915802 384.0585022 C55.91862525 384.8057913 55.9214485 385.55308039 55.9243573 386.32301462 C55.93482037 388.84640748 55.95218722 391.36971012 55.96923828 393.89306641 C55.97765943 395.69463853 55.98549391 397.49621347 55.99278259 399.29779053 C56.00455723 402.1818279 56.01676807 405.065858 56.03075147 407.94988561 C56.06523731 415.10758861 56.08146536 422.2651614 56.08639526 429.42294312 C56.08712795 430.46006931 56.08786064 431.4971955 56.08861554 432.56574976 C56.09128153 436.84701917 56.09332836 441.12828866 56.0950911 445.40955853 C56.10087528 457.57785326 56.12462462 469.74550617 56.20214844 481.91357422 C56.26354641 491.56924814 56.28621303 501.22413248 56.26333606 510.87998712 C56.25268829 515.99212136 56.26172867 521.10252994 56.31766129 526.21440506 C56.36987082 531.02669922 56.37067506 535.83627597 56.33229256 540.64867401 C56.32730188 542.41314823 56.34108145 544.1777923 56.37517738 545.94194412 C56.61719528 559.2660823 56.61719528 559.2660823 52.61855698 563.55332565 C49.80368948 565.37736666 47.09459424 566.72118017 44 568 C42.51090172 568.81545373 41.02945941 569.64536056 39.5625 570.5 C38.83804688 570.89445313 38.11359375 571.28890625 37.3671875 571.6953125 C32.52250146 574.365486 27.77143049 577.20171746 23 580 C11.60077362 586.68526059 11.60077362 586.68526059 5.875 589.9375 C5.17117188 590.33839844 4.46734375 590.73929688 3.7421875 591.15234375 C2 592 2 592 0 592 C0 396.64 0 201.28 0 0 Z " fill="#232323" transform="translate(638,206)"/>
<path d="M0 0 C0.99 0 1.98 0 3 0 C3 132 3 264 3 400 C-2.51551273 399.08074788 -5.30520367 397.84290273 -9.6875 394.8125 C-10.93169329 393.98282004 -12.17780659 393.15601244 -13.42578125 392.33203125 C-14.03502441 391.92936035 -14.64426758 391.52668945 -15.27197266 391.11181641 C-18.43884997 389.07424092 -21.75286936 387.33132283 -25.07421875 385.5625 C-38.60104447 378.33856103 -51.79424579 370.49371789 -65.02148438 362.74121094 C-67.13484458 361.50576135 -69.25102516 360.27513064 -71.36914062 359.04785156 C-73.00399414 358.09990723 -73.00399414 358.09990723 -74.671875 357.1328125 C-75.66799805 356.5567627 -76.66412109 355.98071289 -77.69042969 355.38720703 C-80 354 -80 354 -81 353 C-81.09571971 351.50716202 -81.12188227 350.00980345 -81.12025452 348.51390076 C-81.12162918 347.54489838 -81.12300385 346.575896 -81.12442017 345.57752991 C-81.12082489 344.50579025 -81.11722961 343.4340506 -81.11352539 342.32983398 C-81.11367142 341.20802734 -81.11381744 340.0862207 -81.1139679 338.93041992 C-81.1132682 335.20229189 -81.10547315 331.47421311 -81.09765625 327.74609375 C-81.09579227 325.16919482 -81.09436827 322.59229553 -81.09336853 320.01539612 C-81.08993342 313.91324885 -81.0820426 307.81112206 -81.07201904 301.70898253 C-81.06085689 294.7635075 -81.0553472 287.81803165 -81.05032361 280.87254989 C-81.03985996 266.58168876 -81.02151489 252.29084866 -81 238 C-67.14 238 -53.28 238 -39 238 C-39 219.52 -39 201.04 -39 182 C-52.86 182 -66.72 182 -81 182 C-81 137.45 -81 92.9 -81 47 C-72.09 42.05 -72.09 42.05 -63 37 C-58.44481602 34.33153414 -53.90236764 31.65167998 -49.375 28.9375 C-41.52999872 24.25647515 -33.66811489 19.61957684 -25.68481445 15.17749023 C-20.28087512 12.16964407 -14.91738009 9.09429595 -9.5625 6 C-8.72589844 5.51813232 -7.88929688 5.03626465 -7.02734375 4.53979492 C-5.87105469 3.87040894 -5.87105469 3.87040894 -4.69140625 3.1875 C-4.00248291 2.78917969 -3.31355957 2.39085937 -2.60375977 1.98046875 C-1.02042915 1.09858481 -1.02042915 1.09858481 0 0 Z " fill="#FCFCFC" transform="translate(328,302)"/>
<path d="M0 0 C12.92275448 5.16910179 24.80533234 12.77457678 36.734375 19.875 C44.51900396 24.50671472 52.372671 29.01410907 60.3125 33.375 C65.68723793 36.33825855 70.95583909 39.48587964 76.23754883 42.61083984 C76.95193115 43.03316895 77.66631348 43.45549805 78.40234375 43.890625 C79.04679443 44.27250977 79.69124512 44.65439453 80.35522461 45.04785156 C81.54799575 45.73833805 82.76728768 46.38364384 84 47 C84.5863419 62.51482684 85.0259443 78.02881869 85.2953043 93.55214024 C85.42376721 100.76242235 85.59848609 107.9657921 85.88598633 115.17163086 C86.13674741 121.45969582 86.29678474 127.74275983 86.35221237 134.035685 C86.38462949 137.36824752 86.47260896 140.67531603 86.64325142 144.00534248 C87.47108233 160.84038058 87.47108233 160.84038058 84 168 C77.90303815 174.41761208 69.97295206 178.0895259 61.98185539 181.6342907 C57.98336118 183.46562724 54.3249694 185.70002052 50.625 188.0625 C45.80561058 190.98116038 40.91040519 193.73655326 35.94921875 196.40625 C32.24202239 198.40960909 28.55413515 200.44561101 24.875 202.5 C23.84318604 203.07609009 23.84318604 203.07609009 22.79052734 203.66381836 C18.25857662 206.22101655 13.9160539 208.94690788 9.69921875 212.00390625 C8 213 8 213 5 213 C5 213.66 5 214.32 5 215 C3.35 215.33 1.7 215.66 0 216 C0 144.72 0 73.44 0 0 Z " fill="#FDFDFD" transform="translate(693,302)"/>
<path d="M0 0 C1.32 0.33 2.64 0.66 4 1 C3.99848112 2.31922591 3.99696224 3.63845181 3.99539733 4.99765426 C3.92874909 63.11298355 3.86703417 121.22831671 3.83062744 179.34367371 C3.83007521 180.22293576 3.82952298 181.10219782 3.82895402 182.00810418 C3.81698356 201.11491585 3.80590266 220.22172795 3.79573868 239.32854067 C3.79074915 248.69794973 3.78556296 258.06735868 3.78027344 267.43676758 C3.7797504 268.36915714 3.77922737 269.3015467 3.77868848 270.2621905 C3.76163037 300.50636621 3.73157568 330.75051211 3.69481112 360.99466974 C3.65711234 392.06363839 3.63246557 423.13259054 3.62434004 454.20158167 C3.62318735 458.58565316 3.6218848 462.96972459 3.62049103 467.35379601 C3.62022134 468.21667964 3.61995164 469.07956327 3.61967378 469.96859489 C3.61493922 483.88204928 3.59636633 497.79545277 3.57267186 511.70888637 C3.54916844 525.68241664 3.54011661 539.65589623 3.54599449 553.62944559 C3.54904647 561.94058507 3.54084021 570.25153963 3.51680983 578.56264586 C3.50012255 584.75482049 3.50411181 590.9468148 3.51640442 597.13899609 C3.51810585 599.65451566 3.51293421 602.17005045 3.50046727 604.6855397 C3.48458488 608.0858806 3.49296131 611.48529289 3.50780869 614.88561726 C3.49730063 615.87884777 3.48679258 616.87207828 3.4759661 617.89540669 C3.48944986 619.24719801 3.48944986 619.24719801 3.50320601 620.62629825 C3.50258209 621.40448558 3.50195817 622.18267292 3.50131534 622.98444169 C4.18921657 625.76476591 5.63173695 626.52458709 8 628 C5.6875 628.625 5.6875 628.625 3 629 C2.01 628.34 1.02 627.68 0 627 C-0.37401349 625.10122081 -0.37401349 625.10122081 -0.37259549 622.73126066 C-0.37933737 621.82801349 -0.38607925 620.92476631 -0.39302543 619.99414802 C-0.38514439 618.99347745 -0.37726335 617.99280689 -0.36914349 616.96181297 C-0.37260502 615.90089498 -0.37606655 614.83997699 -0.37963298 613.74690998 C-0.38764823 610.14985094 -0.37405333 606.5531853 -0.36076355 602.95614624 C-0.36207032 600.36816934 -0.36469436 597.78019281 -0.36853105 595.19221842 C-0.37476611 589.54384568 -0.36979751 583.89556752 -0.35761642 578.24720573 C-0.33955363 569.84824282 -0.33860506 561.44933987 -0.34124239 553.05036108 C-0.34518956 538.92378806 -0.33513919 524.79725705 -0.31719017 510.67069626 C-0.29945649 496.67783781 -0.28789585 482.68499684 -0.28463173 468.69212723 C-0.28442551 467.82302528 -0.28421929 466.95392332 -0.28400682 466.05848495 C-0.28299186 461.64499472 -0.2820877 457.23150448 -0.2812262 452.81801422 C-0.27492015 421.53393766 -0.25469469 390.24988398 -0.22631836 358.96582031 C-0.198778 328.56836061 -0.17752083 298.17090717 -0.16479492 267.7734375 C-0.16440034 266.8369275 -0.16400576 265.90041749 -0.16359923 264.9355284 C-0.15964377 255.53095593 -0.15581631 246.12638341 -0.15208265 236.72181086 C-0.14447343 217.56255659 -0.13600967 198.40330274 -0.12702942 179.24404907 C-0.12661755 178.3630821 -0.12620568 177.48211512 -0.12578133 176.57445218 C-0.09816597 117.71629192 -0.05062882 58.85814441 0 0 Z " fill="#252525" transform="translate(415,189)"/>
<path d="M0 0 C2.86724686 0.57344937 3.8614515 0.8614515 6 3 C6.19299079 5.45874228 6.26057655 7.80433506 6.24050903 10.26382446 C6.24221788 11.0209905 6.24392673 11.77815654 6.24568737 12.558267 C6.24899543 15.10876357 6.23795708 17.65900011 6.22705078 20.20947266 C6.22648695 22.03240452 6.22680267 23.85533684 6.22793579 25.67826843 C6.22851141 30.63877508 6.21672341 35.59918571 6.20278788 40.55966997 C6.19031521 45.73934986 6.18911276 50.91903177 6.18673706 56.09872437 C6.18051208 65.91244361 6.16408753 75.72611849 6.14403808 85.53981817 C6.1217107 96.71014158 6.11069362 107.88046708 6.10064721 119.05080724 C6.07972216 142.03389613 6.04452646 165.01694558 6 188 C2.7 189.65 -0.6 191.3 -4 193 C-4.99 192.34 -5.98 191.68 -7 191 C-6.43410156 190.84054051 -5.86820313 190.68108103 -5.28515625 190.51678944 C-2.48752577 189.34446518 -0.97675059 188.32812181 1 186 C2.2812058 180.24778256 2.06972991 174.50235237 2 168.63354492 C2.00760696 166.82985698 2.01872656 165.02618092 2.03309631 163.22253418 C2.06213133 158.327914 2.04198578 153.43458132 2.0130806 148.5400064 C1.99120927 143.4243259 2.01446666 138.30885667 2.03295898 133.19319153 C2.06110511 123.50692131 2.04860229 113.82114601 2.02153492 104.1348899 C1.99269495 93.10710201 2.0091097 82.07952723 2.02934647 71.05173719 C2.06995831 48.36770257 2.05367187 25.6839936 2 3 C1.34 3 0.68 3 0 3 C0 2.01 0 1.02 0 0 Z " fill="#373737" transform="translate(826,315)"/>
<path d="M0 0 C0.66 0 1.32 0 2 0 C1.99848112 1.31922591 1.99696224 2.63845181 1.99539733 3.99765426 C1.92874909 62.11298355 1.86703417 120.22831671 1.83062744 178.34367371 C1.83007521 179.22293576 1.82952298 180.10219782 1.82895402 181.00810418 C1.81698356 200.11491585 1.80590266 219.22172795 1.79573868 238.32854067 C1.79074915 247.69794973 1.78556296 257.06735868 1.78027344 266.43676758 C1.7797504 267.36915714 1.77922737 268.3015467 1.77868848 269.2621905 C1.76163037 299.50636621 1.73157568 329.75051211 1.69481112 359.99466974 C1.65711234 391.06363839 1.63246557 422.13259054 1.62434004 453.20158167 C1.62318735 457.58565316 1.6218848 461.96972459 1.62049103 466.35379601 C1.62022134 467.21667964 1.61995164 468.07956327 1.61967378 468.96859489 C1.61493922 482.88204928 1.59636633 496.79545277 1.57267186 510.70888637 C1.54916844 524.68241664 1.54011661 538.65589623 1.54599449 552.62944559 C1.54904647 560.94058507 1.54084021 569.25153963 1.51680983 577.56264586 C1.50012255 583.75482049 1.50411181 589.9468148 1.51640442 596.13899609 C1.51810585 598.65451566 1.51293421 601.17005045 1.50046727 603.6855397 C1.48458488 607.0858806 1.49296131 610.48529289 1.50780869 613.88561726 C1.49730063 614.87884777 1.48679258 615.87207828 1.4759661 616.89540669 C1.48944986 618.24719801 1.48944986 618.24719801 1.50320601 619.62629825 C1.50258209 620.40448558 1.50195817 621.18267292 1.50131534 621.98444169 C2.18921657 624.76476591 3.63173695 625.52458709 6 627 C3.625 627.625 3.625 627.625 1 628 C0.34 627.34 -0.32 626.68 -1 626 C-0.67 625.67 -0.34 625.34 0 625 C0.09687355 623.62554865 0.12447412 622.2461442 0.1241985 620.86828321 C0.12644579 619.97015017 0.12869308 619.07201712 0.13100848 618.14666793 C0.12838146 617.14657904 0.12575445 616.14649015 0.12304783 615.11609554 C0.12420167 614.05970815 0.12535552 613.00332075 0.12654433 611.91492161 C0.12921952 608.32737527 0.12468145 604.73987262 0.12025452 601.15232849 C0.12069003 598.5734651 0.12156458 595.99460175 0.12284368 593.41573864 C0.12492323 587.78420919 0.12326378 582.15269027 0.11920547 576.52116203 C0.11318755 568.14719535 0.11286807 559.77323535 0.11374746 551.3992669 C0.11506355 537.3151153 0.11171166 523.23096839 0.10573006 509.14681816 C0.0998198 495.19500137 0.09596548 481.24318652 0.09487724 467.29136848 C0.0948085 466.42497049 0.09473976 465.55857249 0.09466894 464.66592001 C0.09433062 460.2662009 0.09402923 455.86648178 0.09374207 451.46676267 C0.09163978 420.27642444 0.08489722 389.08608875 0.07543945 357.89575195 C0.06626004 327.58846042 0.05917397 297.28116959 0.05493164 266.97387695 C0.05480011 266.04022353 0.05466859 265.10657012 0.05453308 264.14462417 C0.05321459 254.76877884 0.05193877 245.39293351 0.05069422 236.01708817 C0.04815778 216.91618232 0.04533652 197.81527651 0.04234314 178.71437073 C0.04220585 177.83607744 0.04206856 176.95778415 0.04192711 176.05287592 C0.03272125 117.36858288 0.01687545 58.68429127 0 0 Z " fill="#3F3F3F" transform="translate(417,190)"/>
<path d="M0 0 C-3.70871258 4.32683135 -6.31179702 5.15589851 -12 8 C-12.33 61.46 -12.66 114.92 -13 170 C-13.66 169.67 -14.32 169.34 -15 169 C-15.99 170.98 -15.99 170.98 -17 173 C-17.23359199 151.3297935 -17.40993817 129.65979453 -17.51812172 107.98858452 C-17.56968854 97.9262064 -17.6399908 87.86461044 -17.75439453 77.80273438 C-17.854061 69.03282915 -17.91858017 60.2634903 -17.94088495 51.49303448 C-17.95392425 46.84867625 -17.98456515 42.2059383 -18.05730057 37.56209946 C-18.12522405 33.19002595 -18.14610953 28.82023817 -18.13107681 24.44768715 C-18.13382624 22.84397386 -18.15369978 21.24018358 -18.19205475 19.63692665 C-18.4666472 7.56589675 -18.4666472 7.56589675 -14.84244919 3.69644547 C-9.9110505 0.58838644 -5.7841807 -0.75445835 0 0 Z " fill="#484848" transform="translate(209,311)"/>
<path d="M0 0 C0.33 0 0.66 0 1 0 C1 55.11 1 110.22 1 167 C-16.49 167 -33.98 167 -52 167 C-52 121.79 -52 76.58 -52 30 C-51.34 30 -50.68 30 -50 30 C-50 74.55 -50 119.1 -50 165 C-33.83 165 -17.66 165 -1 165 C-0.67 110.55 -0.34 56.1 0 0 Z " fill="#0D0D0D" transform="translate(607,191)"/>
<path d="M0 0 C0.99 0.495 0.99 0.495 2 1 C2 70.96 2 140.92 2 213 C3.32 212.01 4.64 211.02 6 210 C8.75 209.8125 8.75 209.8125 11 210 C9.6875 211.5 9.6875 211.5 8 213 C7.01 213 6.02 213 5 213 C5 213.66 5 214.32 5 215 C3.35 215.33 1.7 215.66 0 216 C0 144.72 0 73.44 0 0 Z " fill="#EAEAE9" transform="translate(693,302)"/>
<path d="M0 0 C0.33 0 0.66 0 1 0 C1.33 14.85 1.66 29.7 2 45 C3.32 44.01 4.64 43.02 6 42 C8.75 41.8125 8.75 41.8125 11 42 C9.6875 43.5 9.6875 43.5 8 45 C7.01 45 6.02 45 5 45 C5 45.66 5 46.32 5 47 C2.525 47.495 2.525 47.495 0 48 C0 32.16 0 16.32 0 0 Z " fill="#D7D8D7" transform="translate(693,470)"/>
<path d="M0 0 C1.66687829 0.66613736 3.33348932 1.33294349 5 2 C5.98097656 2.39058594 6.96195312 2.78117188 7.97265625 3.18359375 C8.99230469 3.59738281 10.01195312 4.01117187 11.0625 4.4375 C12.08472656 4.84871094 13.10695313 5.25992188 14.16015625 5.68359375 C16.78206428 6.89897615 18.85464201 8.07072124 21 10 C21 10.66 21 11.32 21 12 C21.99 12.33 22.98 12.66 24 13 C21 14 21 14 19.27001953 13.33496094 C18.64724121 12.97176758 18.02446289 12.60857422 17.3828125 12.234375 C16.69316406 11.83863281 16.00351562 11.44289063 15.29296875 11.03515625 C14.57753906 10.61105469 13.86210937 10.18695312 13.125 9.75 C12.41730469 9.34136719 11.70960938 8.93273437 10.98046875 8.51171875 C9.604299 7.71471914 8.23205618 6.91089181 6.86425781 6.09960938 C5.25494982 5.15037899 3.62526095 4.23585934 1.9921875 3.328125 C1.33476562 2.88984375 0.67734375 2.4515625 0 2 C0 1.34 0 0.68 0 0 Z " fill="#1C1B1B" transform="translate(436,826)"/>
<path d="M0 0 C0.66 0.33 1.32 0.66 2 1 C0.20963542 1.94401042 -1.58072917 2.88802083 -3.37109375 3.83203125 C-5.32267987 4.99019799 -5.32267987 4.99019799 -6 8 C-8.70397334 10.10309037 -10.16421952 11.05969861 -13.625 10.8125 C-16 10 -16 10 -19 8 C-18.01 8 -17.02 8 -16 8 C-15.67 7.34 -15.34 6.68 -15 6 C-14.175 5.896875 -13.35 5.79375 -12.5 5.6875 C-8.35695101 4.87368681 -5.51762501 3.1554086 -1.953125 0.9609375 C-1.30859375 0.64382813 -0.6640625 0.32671875 0 0 Z " fill="#2B2B2B" transform="translate(525,860)"/>
<path d="M0 0 C-3.21528142 3.38450676 -6.73493758 6.06425604 -11 8 C-14.5 7.8125 -14.5 7.8125 -17 7 C-11.65999841 2.72799873 -7.08498519 -0.69121807 0 0 Z " fill="#2C2C2C" transform="translate(318,248)"/>
<path d="M0 0 C1.79398267 0.95399078 3.58511655 1.91334026 5.375 2.875 C6.37273438 3.40867188 7.37046875 3.94234375 8.3984375 4.4921875 C11 6 11 6 13 8 C11.35 8.66 9.7 9.32 8 10 C8 9.34 8 8.68 8 8 C7.2575 7.71125 6.515 7.4225 5.75 7.125 C3.43260203 6.17697356 1.22082885 5.15154089 -1 4 C-0.67 2.68 -0.34 1.36 0 0 Z " fill="#2A2A29" transform="translate(654,215)"/>
<path d="M0 0 C0 0.99 0 1.98 0 3 C0.66 3.33 1.32 3.66 2 4 C0.948125 4.103125 -0.10375 4.20625 -1.1875 4.3125 C-4.90212333 4.98235011 -6.867691 6.03112006 -10 8 C-12 7 -12 7 -13 5 C-11.58957044 4.15615325 -10.17135868 3.32530504 -8.75 2.5 C-7.56664062 1.80390625 -7.56664062 1.80390625 -6.359375 1.09375 C-4 0 -4 0 0 0 Z " fill="#2A2A2A" transform="translate(514,134)"/>
<path d="M0 0 C1.65376718 0.73233973 3.29787304 1.48652714 4.9375 2.25 C5.85402344 2.66765625 6.77054688 3.0853125 7.71484375 3.515625 C10 5 10 5 10.81640625 7.171875 C10.87699219 7.77515625 10.93757813 8.3784375 11 9 C8.125 9.1875 8.125 9.1875 5 9 C4.34 8.01 3.68 7.02 3 6 C0.94996045 4.80767387 0.94996045 4.80767387 -1 4 C-0.67 2.68 -0.34 1.36 0 0 Z " fill="#2E2E2D" transform="translate(247,655)"/>
<path d="M0 0 C0.66 0.33 1.32 0.66 2 1 C0.75272425 4.74182726 -0.50436897 5.28306091 -3.8125 7.3125 C-4.68519531 7.86550781 -5.55789063 8.41851563 -6.45703125 8.98828125 C-9 10 -9 10 -11.32421875 9.16796875 C-12.15373047 8.58982422 -12.15373047 8.58982422 -13 8 C-11.68 7.67 -10.36 7.34 -9 7 C-9 6.34 -9 5.68 -9 5 C-7.54735962 4.1361871 -6.0876837 3.28419546 -4.625 2.4375 C-3.81289063 1.96183594 -3.00078125 1.48617187 -2.1640625 0.99609375 C-1.44992187 0.66738281 -0.73578125 0.33867188 0 0 Z " fill="#2B2B2B" transform="translate(724,561)"/>
<path d="M0 0 C0.66 0 1.32 0 2 0 C2 0.66 2 1.32 2 2 C3.0828125 2.433125 3.0828125 2.433125 4.1875 2.875 C6.79166667 3.91666667 9.39583333 4.95833333 12 6 C11.01 6.495 11.01 6.495 10 7 C10 7.66 10 8.32 10 9 C8.02 9 6.04 9 4 9 C3.67 8.01 3.34 7.02 3 6 C2.484375 5.505 1.96875 5.01 1.4375 4.5 C0 3 0 3 0 0 Z " fill="#343434" transform="translate(741,265)"/>
<path d="M0 0 C0.66 0.33 1.32 0.66 2 1 C1.01 1.61875 0.02 2.2375 -1 2.875 C-1.99 3.57625 -2.98 4.2775 -4 5 C-4 5.66 -4 6.32 -4 7 C-10.75 11 -10.75 11 -13 11 C-12.87109375 9.23828125 -12.87109375 9.23828125 -12 7 C-9.34765625 5.04296875 -9.34765625 5.04296875 -6.0625 3.1875 C-4.98097656 2.56230469 -3.89945313 1.93710937 -2.78515625 1.29296875 C-1.86605469 0.86628906 -0.94695313 0.43960938 0 0 Z " fill="#2A2A2B" transform="translate(653,786)"/>
<path d="M0 0 C1.32 0.66 2.64 1.32 4 2 C0.67692308 5.93846154 0.67692308 5.93846154 -2.75 6.25 C-3.4925 6.1675 -4.235 6.085 -5 6 C-5.66 7.32 -6.32 8.64 -7 10 C-7.66 9.67 -8.32 9.34 -9 9 C-7.32482761 5.46352496 -6.50719183 4.2088437 -2.8125 2.6875 C-1.884375 2.460625 -0.95625 2.23375 0 2 C0 1.34 0 0.68 0 0 Z " fill="#353535" transform="translate(442,172)"/>
<path d="M0 0 C5.15464734 0.48324819 8.81550319 3.18610761 13 6 C12.67 6.99 12.34 7.98 12 9 C6.71181939 7.18690951 3.11407709 4.67111564 0 0 Z " fill="#313130" transform="translate(693,299)"/>
<path d="M0 0 C-0.98491776 3.64419572 -1.65826352 4.78914132 -4.9375 6.8125 C-8 8 -8 8 -11 8 C-11.99 8.33 -12.98 8.66 -14 9 C-14 8.34 -14 7.68 -14 7 C-11.4453125 5.2734375 -11.4453125 5.2734375 -8.125 3.375 C-7.03445313 2.74335937 -5.94390625 2.11171875 -4.8203125 1.4609375 C-2 0 -2 0 0 0 Z " fill="#2F302F" transform="translate(561,840)"/>
<path d="M0 0 C0.66 0.33 1.32 0.66 2 1 C2 1.99 2 2.98 2 4 C-2.75 6 -2.75 6 -5 6 C-6.37310707 7.29233607 -7.71034824 8.62437146 -9 10 C-9.33 8.68 -9.66 7.36 -10 6 C-8.3811004 4.96951963 -6.75467511 3.95085322 -5.125 2.9375 C-4.22007812 2.36902344 -3.31515625 1.80054688 -2.3828125 1.21484375 C-1.20332031 0.61349609 -1.20332031 0.61349609 0 0 Z " fill="#2E2E2E" transform="translate(268,273)"/>
<path d="M0 0 C4.30764815 1.56641751 8.06171464 3.68336156 12 6 C10.265625 7.13671875 10.265625 7.13671875 8 8 C5.859375 7.20703125 5.859375 7.20703125 3.75 5.8125 C3.04359375 5.36519531 2.3371875 4.91789062 1.609375 4.45703125 C1.07828125 3.97621094 0.5471875 3.49539063 0 3 C0 2.01 0 1.02 0 0 Z " fill="#2F302F" transform="translate(713,310)"/>
<path d="M0 0 C3.67716271 1.06444184 6.77282884 2.97149242 10 5 C9.01 5.66 8.02 6.32 7 7 C3.66666667 5.33333333 0.33333333 3.66666667 -3 2 C-2.01 1.34 -1.02 0.68 0 0 Z " fill="#363635" transform="translate(468,843)"/>
<path d="M0 0 C3.59391114 1.33488128 6.75490696 2.96022723 10 5 C9.67 5.99 9.34 6.98 9 8 C7.67968405 7.43457996 6.3688699 6.84693528 5.0625 6.25 C3.96615234 5.76273438 3.96615234 5.76273438 2.84765625 5.265625 C1 4 1 4 0.24609375 1.859375 C0.16488281 1.24578125 0.08367187 0.6321875 0 0 Z " fill="#2A2A2A" transform="translate(203,690)"/>
<path d="M0 0 C0.66 0.99 1.32 1.98 2 3 C0.71475739 3.86380259 -0.57842419 4.71580369 -1.875 5.5625 C-2.59429688 6.03816406 -3.31359375 6.51382812 -4.0546875 7.00390625 C-4.69664062 7.33261719 -5.33859375 7.66132813 -6 8 C-6.66 7.67 -7.32 7.34 -8 7 C-8 6.01 -8 5.02 -8 4 C-5.36 2.68 -2.72 1.36 0 0 Z " fill="#323232" transform="translate(742,490)"/>
<path d="M0 0 C0.66 0.33 1.32 0.66 2 1 C-0.46941056 3.59937954 -3.18060883 5.79020692 -6 8 C-7.32 7.34 -8.64 6.68 -10 6 C-8.3811004 4.96951963 -6.75467511 3.95085322 -5.125 2.9375 C-4.22007812 2.36902344 -3.31515625 1.80054688 -2.3828125 1.21484375 C-1.20332031 0.61349609 -1.20332031 0.61349609 0 0 Z " fill="#313131" transform="translate(285,324)"/>
<path d="M0 0 C1.98 0.66 3.96 1.32 6 2 C6 2.66 6 3.32 6 4 C6.99 4 7.98 4 9 4 C9 4.66 9 5.32 9 6 C7.1875 6.625 7.1875 6.625 5 7 C4.01 6.34 3.02 5.68 2 5 C2 4.01 2 3.02 2 2 C1.34 2 0.68 2 0 2 C0 1.34 0 0.68 0 0 Z " fill="#323131" transform="translate(479,849)"/>
<path d="M0 0 C0.66 0.33 1.32 0.66 2 1 C1 4 1 4 -1.25 5.75 C-4.41076857 7.18671298 -5.74770785 7.02214896 -9 6 C-6.45368965 3.02930459 -3.57769851 1.5224249 0 0 Z " fill="#2C2C2B" transform="translate(707,571)"/>
<path d="M0 0 C0.99 0.66 1.98 1.32 3 2 C2 3 2 3 -0.25 3.3125 C-3.82321129 2.90645326 -5.3899565 1.38632549 -8 -1 C-4.3286919 -2.22376937 -3.40346492 -1.61664584 0 0 Z " fill="#2C2B2B" transform="translate(466,841)"/>
<path d="M0 0 C3.89939912 1.36478969 6.44849426 2.89676409 9.75 5.3125 C8.76 5.8075 8.76 5.8075 7.75 6.3125 C7.0075 5.85875 6.265 5.405 5.5 4.9375 C2.50211379 3.16602179 0.15377305 2.84197581 -3.25 2.3125 C-3.91 1.6525 -4.57 0.9925 -5.25 0.3125 C-3.25 -0.6875 -3.25 -0.6875 0 0 Z " fill="#313231" transform="translate(435.25,823.6875)"/>
<path d="M0 0 C-2.1385485 2.1385485 -3.13275314 2.42655063 -6 3 C-5.34 3.66 -4.68 4.32 -4 5 C-6.97 5 -9.94 5 -13 5 C-8.60693972 0.60693972 -6.21642599 -0.28256482 0 0 Z " fill="#333333" transform="translate(720,506)"/>
<path d="M0 0 C5.75 1.875 5.75 1.875 8 3 C8 3.66 8 4.32 8 5 C6.3125 5.75 6.3125 5.75 4 6 C1.25 4.0625 1.25 4.0625 -1 2 C-0.67 1.34 -0.34 0.68 0 0 Z " fill="#2F2E2F" transform="translate(265,726)"/>
<path d="M0 0 C-5.52841596 4.76058041 -5.52841596 4.76058041 -9 5 C-9.66 4.34 -10.32 3.68 -11 3 C-7.16674383 0.29417212 -4.67461851 -0.32613618 0 0 Z " fill="#2B2B2A" transform="translate(277,332)"/>
<path d="M0 0 C0.33 0.66 0.66 1.32 1 2 C1.66 2.33 2.32 2.66 3 3 C1.25 4.5625 1.25 4.5625 -1 6 C-3.1875 5.8125 -3.1875 5.8125 -5 5 C-5.33 4.34 -5.66 3.68 -6 3 C-4.02 2.01 -2.04 1.02 0 0 Z " fill="#2D2D2D" transform="translate(248,285)"/>
<path d="M0 0 C0.66 0.33 1.32 0.66 2 1 C0.61518672 1.87191947 -0.78345246 2.72190384 -2.1875 3.5625 C-2.96480469 4.03816406 -3.74210937 4.51382813 -4.54296875 5.00390625 C-7.48360967 6.19605797 -9.00446363 5.88855164 -12 5 C-8.77473782 2.14688345 -6.2241104 1.55097092 -2 1 C-1.34 0.67 -0.68 0.34 0 0 Z " fill="#313131" transform="translate(474,157)"/>
<path d="M0 0 C0 0.66 0 1.32 0 2 C-0.99 2 -1.98 2 -3 2 C-3.33 2.66 -3.66 3.32 -4 4 C-4 3.34 -4 2.68 -4 2 C-5.65 2.33 -7.3 2.66 -9 3 C-9 2.34 -9 1.68 -9 1 C-5.64919071 -1.10976881 -3.77897651 -1.0497157 0 0 Z M0 -1 C2 0 2 0 2 0 Z " fill="#1C1B1B" transform="translate(323,246)"/>
<path d="M0 0 C0.33 0.66 0.66 1.32 1 2 C-0.98 2.99 -2.96 3.98 -5 5 C-4.67 5.66 -4.34 6.32 -4 7 C-5.875 7.625 -5.875 7.625 -8 8 C-8.66 7.34 -9.32 6.68 -10 6 C-8.70903219 5.18639005 -7.41720125 4.37414954 -6.125 3.5625 C-5.04605469 2.88380859 -5.04605469 2.88380859 -3.9453125 2.19140625 C-2 1 -2 1 0 0 Z " fill="#2E2F2F" transform="translate(603,815)"/>
<path d="M0 0 C0.66 1.32 1.32 2.64 2 4 C-0.57213134 5.61949011 -1.67669159 6.04408751 -4.75 5.625 C-5.4925 5.41875 -6.235 5.2125 -7 5 C-4.702779 3.25728062 -2.40133271 1.60088848 0 0 Z " fill="#2E2E2E" transform="translate(705,511)"/>
<path d="M0 0 C0.66 0.99 1.32 1.98 2 3 C0.02 4.32 -1.96 5.64 -4 7 C-4.33 6.34 -4.66 5.68 -5 5 C-5.66 4.67 -6.32 4.34 -7 4 C-4.69 2.68 -2.38 1.36 0 0 Z " fill="#393939" transform="translate(750,485)"/>
<path d="M0 0 C0.66 0.99 1.32 1.98 2 3 C0.02 4.32 -1.96 5.64 -4 7 C-4.66 6.67 -5.32 6.34 -6 6 C-6 5.01 -6 4.02 -6 3 C-4.02 2.01 -2.04 1.02 0 0 Z " fill="#333433" transform="translate(549,786)"/>
<path d="M0 0 C0.763125 0.20625 1.52625 0.4125 2.3125 0.625 C-1.11096555 3.77458831 -4.13012737 4.18679109 -8.6875 4.625 C-3.77052239 -0.5261194 -3.77052239 -0.5261194 0 0 Z " fill="#363536" transform="translate(750.6875,547.375)"/>
<path d="M0 0 C0.33 1.32 0.66 2.64 1 4 C-0.98 4.66 -2.96 5.32 -5 6 C-5.66 5.34 -6.32 4.68 -7 4 C-4.69 2.68 -2.38 1.36 0 0 Z " fill="#2A2A2A" transform="translate(766,476)"/>
<path d="M0 0 C0.66 0.33 1.32 0.66 2 1 C1 4 1 4 -2.0625 5.6875 C-3.031875 6.120625 -4.00125 6.55375 -5 7 C-5 6.34 -5 5.68 -5 5 C-5.66 4.67 -6.32 4.34 -7 4 C-1.7265625 0.77734375 -1.7265625 0.77734375 0 0 Z " fill="#2E2E2D" transform="translate(589,823)"/>
<path d="M0 0 C0.66 0.33 1.32 0.66 2 1 C-0.80804268 3.96404505 -3.18315774 6.44499019 -7 8 C-7.33 7.01 -7.66 6.02 -8 5 C-6.71475739 4.13619741 -5.42157581 3.28419631 -4.125 2.4375 C-3.04605469 1.72400391 -3.04605469 1.72400391 -1.9453125 0.99609375 C-1.30335938 0.66738281 -0.66140625 0.33867188 0 0 Z " fill="#2E2E2E" transform="translate(361,747)"/>
<path d="M0 0 C0.66 0.99 1.32 1.98 2 3 C-1.75 6 -1.75 6 -4 6 C-4.33 5.01 -4.66 4.02 -5 3 C-3.35 2.01 -1.7 1.02 0 0 Z " fill="#2D2D2D" transform="translate(215,304)"/>
<path d="M0 0 C2.91517292 1.07401108 4.77810176 1.77810176 7 4 C6.67 4.66 6.34 5.32 6 6 C3.08482708 4.92598892 1.22189824 4.22189824 -1 2 C-0.67 1.34 -0.34 0.68 0 0 Z " fill="#303030" transform="translate(778,287)"/>
<path d="M0 0 C0.66 0.33 1.32 0.66 2 1 C0.515 3.475 0.515 3.475 -1 6 C-2.65 5.67 -4.3 5.34 -6 5 C-4.6875 3.5 -4.6875 3.5 -3 2 C-2.01 2 -1.02 2 0 2 C0 1.34 0 0.68 0 0 Z " fill="#2F2F2F" transform="translate(422,184)"/>
<path d="M0 0 C0 0.66 0 1.32 0 2 C0.66 2.33 1.32 2.66 2 3 C-1.37097383 4.49821059 -3.20442119 5 -7 5 C-7 4.34 -7 3.68 -7 3 C-2.61538462 0 -2.61538462 0 0 0 Z " fill="#3A3A3A" transform="translate(786,526)"/>
<path d="M0 0 C0.33 0 0.66 0 1 0 C1.09765625 6.15234375 1.09765625 6.15234375 1 8 C0 9 0 9 -3.5625 9.0625 C-4.696875 9.041875 -5.83125 9.02125 -7 9 C-5.1875 7.4375 -5.1875 7.4375 -3 6 C-2.01 6.33 -1.02 6.66 0 7 C0 4.69 0 2.38 0 0 Z " fill="#333333" transform="translate(779,464)"/>
<path d="M0 0 C0.33 1.32 0.66 2.64 1 4 C-0.65 4.66 -2.3 5.32 -4 6 C-4 5.34 -4 4.68 -4 4 C-4.66 3.67 -5.32 3.34 -6 3 C-4.02 2.01 -2.04 1.02 0 0 Z " fill="#343433" transform="translate(241,289)"/>
<path d="M0 0 C0 0.99 0 1.98 0 3 C-2.875 3.625 -2.875 3.625 -6 4 C-6.66 3.34 -7.32 2.68 -8 2 C-4.77208445 -0.1519437 -3.71599191 -0.20086443 0 0 Z " fill="#2F2E2E" transform="translate(327,242)"/>
<path d="M0 0 C3.66226912 0.39238598 6.77780124 2.31566883 10 4 C6.69564916 5.12377697 4.9493138 4.89554742 1.75 3.5625 C1.04359375 3.27503906 0.3371875 2.98757812 -0.390625 2.69140625 C-0.92171875 2.46324219 -1.4528125 2.23507813 -2 2 C-1.34 1.34 -0.68 0.68 0 0 Z " fill="#191919" transform="translate(511,195)"/>
<path d="M0 0 C1.98 0.495 1.98 0.495 4 1 C4.33 2.65 4.66 4.3 5 6 C3.02 5.01 1.04 4.02 -1 3 C-0.67 2.01 -0.34 1.02 0 0 Z " fill="#383838" transform="translate(501,862)"/>
<path d="M0 0 C0.94875 0.515625 1.8975 1.03125 2.875 1.5625 C4.421875 2.2740625 4.421875 2.2740625 6 3 C6.66 2.67 7.32 2.34 8 2 C8.99 2.66 9.98 3.32 11 4 C10.34 4 9.68 4 9 4 C9 4.66 9 5.32 9 6 C5.9168649 4.80100302 2.93720508 3.52299523 0 2 C0 1.34 0 0.68 0 0 Z " fill="#333333" transform="translate(479,791)"/>
<path d="M0 0 C0.99 0 1.98 0 3 0 C3 0.66 3 1.32 3 2 C3.99 2.33 4.98 2.66 6 3 C5.67 3.66 5.34 4.32 5 5 C3.02 4.34 1.04 3.68 -1 3 C-0.67 2.01 -0.34 1.02 0 0 Z " fill="#343334" transform="translate(473,786)"/>
<path d="M0 0 C2.3125 0.8125 2.3125 0.8125 4 2 C2.02 2.99 0.04 3.98 -2 5 C-2.99 4.34 -3.98 3.68 -5 3 C-2.75 1.375 -2.75 1.375 0 0 Z " fill="#333333" transform="translate(683,769)"/>
<path d="M0 0 C0 0.99 0 1.98 0 3 C-0.66 3 -1.32 3 -2 3 C-2 3.66 -2 4.32 -2 5 C-3.98 5.66 -5.96 6.32 -8 7 C-6.5361389 2.60841671 -4.02168662 2.12052567 0 0 Z " fill="#D4D3D3" transform="translate(365,748)"/>
<path d="M0 0 C2.475 0.99 2.475 0.99 5 2 C4.67 2.66 4.34 3.32 4 4 C1.67843403 4.40729228 -0.6568787 4.74438677 -3 5 C-3 4.34 -3 3.68 -3 3 C-2.34 3 -1.68 3 -1 3 C-0.67 2.01 -0.34 1.02 0 0 Z " fill="#292829" transform="translate(727,258)"/>
<path d="M0 0 C3.99500618 1.3697164 6.80009492 3.25722422 10 6 C9.01 6.33 8.02 6.66 7 7 C7 6.34 7 5.68 7 5 C6.01 5 5.02 5 4 5 C4 4.34 4 3.68 4 3 C2.68 2.67 1.36 2.34 0 2 C0 1.34 0 0.68 0 0 Z " fill="#C5C4C4" transform="translate(447,834)"/>
<path d="M0 0 C0.66 0.33 1.32 0.66 2 1 C1.2884375 1.680625 1.2884375 1.680625 0.5625 2.375 C-1.09027808 3.93258204 -1.09027808 3.93258204 -2 6 C-3.65 6 -5.3 6 -7 6 C-7 5.34 -7 4.68 -7 4 C-1.7265625 0.77734375 -1.7265625 0.77734375 0 0 Z " fill="#2A2A2A" transform="translate(663,780)"/>
<path d="M0 0 C0 0.66 0 1.32 0 2 C-5.53846154 2.36923077 -5.53846154 2.36923077 -7.875 0.5 C-8.24625 0.005 -8.6175 -0.49 -9 -1 C-5.79937313 -2.60031344 -3.27728194 -1.03173691 0 0 Z " fill="#343333" transform="translate(325,759)"/>
<path d="M0 0 C0.66 0.33 1.32 0.66 2 1 C1.67 1.99 1.34 2.98 1 4 C-1.5625 5.1875 -1.5625 5.1875 -4 6 C-4.66 5.34 -5.32 4.68 -6 4 C-4.68 3.67 -3.36 3.34 -2 3 C-2 2.34 -2 1.68 -2 1 C-1.34 0.67 -0.68 0.34 0 0 Z " fill="#363636" transform="translate(717,565)"/>
<path d="M0 0 C-4.95 2.475 -4.95 2.475 -10 5 C-10 4.34 -10 3.68 -10 3 C-3.375 -1.125 -3.375 -1.125 0 0 Z " fill="#131312" transform="translate(226,301)"/>
<path d="M0 0 C1.98 0.99 3.96 1.98 6 3 C5.67 3.99 5.34 4.98 5 6 C2.08482708 4.92598892 0.22189824 4.22189824 -2 2 C-1.34 2 -0.68 2 0 2 C0 1.34 0 0.68 0 0 Z " fill="#303130" transform="translate(734,261)"/>
<path d="M0 0 C-2.64 1.65 -5.28 3.3 -8 5 C-8.33 4.34 -8.66 3.68 -9 3 C-8 1 -8 1 -5.625 -0.1875 C-3 -1 -3 -1 0 0 Z " fill="#1D1D1D" transform="translate(477,217)"/>
<path d="M0 0 C0 0.66 0 1.32 0 2 C-1.65 2.66 -3.3 3.32 -5 4 C-5 3.34 -5 2.68 -5 2 C-5.66 1.67 -6.32 1.34 -7 1 C-3.375 -1.125 -3.375 -1.125 0 0 Z " fill="#2E2E2F" transform="translate(731,499)"/>
<path d="M0 0 C0.66 0.33 1.32 0.66 2 1 C1.67 1.99 1.34 2.98 1 4 C-0.9375 4.8125 -0.9375 4.8125 -3 5 C-3.66 4.34 -4.32 3.68 -5 3 C-2.625 1.4375 -2.625 1.4375 0 0 Z " fill="#2E2E2E" transform="translate(323,302)"/>
<path d="M0 0 C2.31 0 4.62 0 7 0 C4.8586563 2.46254526 3.30129606 3.69050349 0 4 C-0.99 3.34 -1.98 2.68 -3 2 C-2.01 2 -1.02 2 0 2 C0 1.34 0 0.68 0 0 Z " fill="#373736" transform="translate(509,866)"/>
<path d="M0 0 C0.66 0.33 1.32 0.66 2 1 C2 1.66 2 2.32 2 3 C0.68 3.33 -0.64 3.66 -2 4 C-2 4.66 -2 5.32 -2 6 C-4 5 -4 5 -5 3 C-2.625 1.4375 -2.625 1.4375 0 0 Z " fill="#3D3C3C" transform="translate(346,756)"/>
<path d="M0 0 C1.32 0 2.64 0 4 0 C4 0.66 4 1.32 4 2 C5.65 2.33 7.3 2.66 9 3 C9 3.66 9 4.32 9 5 C5.22454612 3.90931332 2.52956528 3.0916909 0 0 Z " fill="#C5C5C5" transform="translate(291,680)"/>
<path d="M0 0 C1.98 0.66 3.96 1.32 6 2 C5.34 2.66 4.68 3.32 4 4 C1.375 3.625 1.375 3.625 -1 3 C-0.67 2.01 -0.34 1.02 0 0 Z " fill="#30302F" transform="translate(786,292)"/>
<path d="M0 0 C3 1 3 1 4.1875 3.0625 C4.455625 3.701875 4.72375 4.34125 5 5 C3.35 4.67 1.7 4.34 0 4 C0 2.68 0 1.36 0 0 Z " fill="#1A1A1A" transform="translate(543,211)"/>
<path d="M0 0 C6.75 1.625 6.75 1.625 9 5 C5.22454612 3.90931332 2.52956528 3.0916909 0 0 Z " fill="#C0C0BF" transform="translate(523,139)"/>
</svg>
